# xmcd
#
# Track frame offsets: 
#        150
#        9067
#        27062
#        49532
#        64187
#        81075
#        96412
#        121797
#        137857
#
# Disc length: 2159 seconds
#
# Revision: 1
# Processed by: cddbd v1.5.2PL0 Copyright (c) Steve Scherf et al.
# Submitted via: ExactAudioCopyFreeDBPlugin 1.0
#
DISCID=66086d09
DTITLE=Rikshaw - yellow above the see
DYEAR=1988
DGENRE=New Age
TTITLE0=Imperial Talk
TTITLE1=Get What I Want
TTITLE2=Same As Before
TTITLE3=Once In A While
TTITLE4=Yellow Above The See
TTITLE5=Ordinary Day
TTITLE6=Mind The Gap
TTITLE7=Shock Treatment
TTITLE8=Great Wall Of China
EXTD=YEAR: 1988
EXTT0=
EXTT1=
EXTT2=
EXTT3=
EXTT4=
EXTT5=
EXTT6=
EXTT7=
EXTT8=
PLAYORDER=
